<svg xmlns="http://www.w3.org/2000/svg" xmlns:xlink="http://www.w3.org/1999/xlink" width="2000" zoomAndPan="magnify" viewBox="0 0 1500 1124.99995" height="1500" preserveAspectRatio="xMidYMid meet" version="1.0"><defs><clipPath id="2be792e162"><path d="M 30.117188 376 L 1470 376 L 1470 1024 L 30.117188 1024 Z M 30.117188 376 " clip-rule="nonzero"/></clipPath></defs><g clip-path="url(#2be792e162)"><path fill="#063831" d="M 30.117188 486.800781 C 191.363281 377.078125 359.921875 347.183594 559.652344 406.65625 C 657.289062 435.597656 745.382812 490.300781 812.171875 575.535156 C 839.839844 610.519531 861.785156 642.003906 893.589844 675.398438 C 955.605469 740.59375 1012.21875 766.992188 1087.910156 792.753906 C 1129.890625 807.066406 1142.613281 811.835938 1185.230469 815.332031 C 1273.960938 730.417969 1313.398438 746 1361.738281 728.828125 C 1351.246094 657.585938 1297.179688 625.464844 1189.683594 646.773438 C 1250.746094 597.160156 1305.449219 586.664062 1347.429688 603.839844 C 1388.457031 620.695312 1412.308594 661.085938 1421.847656 714.199219 C 1425.984375 736.777344 1455.242188 773.035156 1469.238281 794.023438 C 1429.164062 773.988281 1402.132812 770.492188 1360.785156 783.210938 C 1289.863281 804.839844 1213.21875 903.113281 1131.800781 952.40625 C 1031.9375 1013.152344 949.882812 1045.59375 833.796875 1007.746094 C 729.484375 973.714844 527.210938 974.351562 428.9375 1007.429688 C 478.871094 956.222656 579.367188 917.105469 629.9375 913.289062 C 742.839844 904.703125 846.203125 948.273438 956.5625 907.566406 C 920.621094 904.382812 892.636719 897.707031 867.191406 888.164062 C 742.523438 840.777344 593.679688 699.25 488.410156 614.652344 C 446.746094 580.941406 402.859375 547.546875 375.1875 530.371094 C 290.273438 476.304688 175.78125 421.605469 29.164062 486.484375 Z M 30.117188 486.800781 " fill-opacity="1" fill-rule="evenodd"/></g><path fill="#d4eb86" d="M 1380.1875 113.425781 C 1250.109375 153.5 1161.695312 226.964844 1109.855469 338.597656 C 1060.242188 444.820312 1051.652344 611.152344 1078.6875 723.101562 C 1028.121094 663.3125 946.703125 594.933594 919.351562 487.4375 C 878.640625 327.148438 984.867188 212.652344 1120.667969 146.183594 C 1205.902344 104.519531 1301.949219 87.027344 1380.1875 113.742188 Z M 1380.1875 113.425781 " fill-opacity="1" fill-rule="evenodd"/></svg>